<?xml version="1.0" encoding="UTF-8"?>
<!DOCTYPE svg PUBLIC "-//W3C//DTD SVG 1.1//EN" "http://www.w3.org/Graphics/SVG/1.1/DTD/svg11.dtd">
<!-- Creator: CorelDRAW 2019 (64-Bit) -->
<svg xmlns="http://www.w3.org/2000/svg" xml:space="preserve" width="20px" height="20px" version="1.1" style="shape-rendering:geometricPrecision; text-rendering:geometricPrecision; image-rendering:optimizeQuality; fill-rule:evenodd; clip-rule:evenodd"
viewBox="0 0 20 20"
 xmlns:xlink="http://www.w3.org/1999/xlink"
 xmlns:xodm="http://www.corel.com/coreldraw/odm/2003">
 <defs>
  <style type="text/css">
   <![CDATA[
    .fil1 {fill:#FEFEFE}
    .fil0 {fill:url(#id0)}
    .fil2 {fill:url(#id1)}
   ]]>
  </style>
  <linearGradient id="id0" gradientUnits="userSpaceOnUse" x1="0" y1="10" x2="20" y2="10">
   <stop offset="0" style="stop-opacity:1; stop-color:#2A2A72"/>
   <stop offset="1" style="stop-opacity:1; stop-color:#348CBF"/>
  </linearGradient>
  <linearGradient id="id1" gradientUnits="userSpaceOnUse" x1="7.14" y1="12.11" x2="12.63" y2="12.11">
   <stop offset="0" style="stop-opacity:1; stop-color:#2A2A72"/>
   <stop offset="0.529412" style="stop-opacity:1; stop-color:#2A4C84"/>
   <stop offset="1" style="stop-opacity:1; stop-color:#2A6E96"/>
  </linearGradient>
 </defs>
 <g id="Layer_x0020_1">
  <metadata id="CorelCorpID_0Corel-Layer"/>
  <rect class="fil0" width="20" height="20"/>
  <path class="fil1" d="M12.49 6.67c0.06,-0.63 0.02,-1.31 -0.21,-1.85 -0.63,-1.35 -2.18,-1.82 -3.45,-1.18 -0.68,0.34 -1.14,1.02 -1.29,1.83 -0.05,0.32 -0.05,0.66 -0.03,0.98 0.01,0.27 -0.04,0.22 0.3,0.22 0.18,0 0.34,0 0.52,0 0.21,0 4.06,0.03 4.16,0zm-3.71 -3.94c-0.04,0.06 -0.29,0.16 -0.34,0.18 -0.13,0.07 -0.24,0.15 -0.34,0.22 -0.06,0.03 -0.11,0.09 -0.16,0.12 -0.08,0.06 -0.11,0.11 -0.18,0.14 -0.02,0.06 -0.15,0.17 -0.2,0.2 -0.07,0.07 -0.11,0.16 -0.2,0.2 -0.01,0.03 -0.14,0.23 -0.17,0.25 -0.02,0.07 -0.09,0.16 -0.15,0.25 -0.02,0.03 -0.09,0.21 -0.11,0.23 -0.03,0.14 -0.08,0.25 -0.12,0.41l-0.05 0.31 -0.06 0.44 0 0.29 -0.02 0.12 0 0.59 -0.69 -0.01c-0.18,0 -0.38,-0.02 -0.56,0 -0.14,0.01 -0.35,0.08 -0.44,0.08 -0.04,0.04 -0.11,0.06 -0.16,0.09 -0.24,0.15 -0.27,0.22 -0.38,0.33 -0.04,0.05 -0.07,0.09 -0.09,0.14 -0.02,0.03 -0.05,0.12 -0.07,0.14l-0.07 0.25 -0.06 0.25 -0.05 0.5 -0.02 0.25c0,0.11 0,0.38 -0.03,0.43 0.02,0.11 -0.02,0.43 -0.04,0.54l-0.05 0.53 -0.04 0.25 -0.02 0.29 -0.08 0.82 -0.08 0.66 -0.03 0.47 -0.04 0.32 -0.07 0.72 -0.04 0.41 -0.05 0.37 -0.02 0.27 -0.05 0.45 -0.04 0.3 -0.01 0.29c-0.02,0.16 -0.04,0.39 -0.04,0.55l0.05 0.23c0.02,0.06 0.06,0.16 0.11,0.25 0.02,0.06 0.04,0.09 0.07,0.13 0.04,0.05 0.06,0.07 0.09,0.11 0.13,0.08 0.16,0.17 0.48,0.28 0.2,0.07 0.43,0.11 0.68,0.11 0.5,0 1.02,0 1.54,0l2.31 0 4.14 0c0.66,0 1.33,0 1.99,0 0.28,0 0.64,0.02 0.93,-0.06 0.23,-0.05 0.48,-0.25 0.59,-0.37 0.05,-0.07 0.09,-0.11 0.14,-0.2 0.03,-0.07 0.07,-0.16 0.11,-0.21l0.05 -0.25 0 -0.34 -0.05 -0.47 -0.09 -0.78 -0.04 -0.49 -0.05 -0.41 -0.06 -0.59 -0.05 -0.53 -0.04 -0.43 -0.05 -0.45 -0.04 -0.39 -0.03 -0.29c0,-0.1 -0.04,-0.27 -0.02,-0.35 -0.03,-0.06 -0.05,-0.43 -0.05,-0.49l-0.02 -0.16 -0.05 -0.53 -0.04 -0.29 -0.02 -0.3 -0.03 -0.36 -0.04 -0.39 -0.02 -0.27 -0.07 -0.34c-0.03,-0.11 -0.07,-0.25 -0.11,-0.36 -0.01,-0.04 -0.05,-0.11 -0.07,-0.14 -0.03,-0.07 -0.05,-0.09 -0.09,-0.15 -0.03,-0.01 0,0 -0.03,-0.03 -0.11,-0.11 -0.18,-0.18 -0.34,-0.25 -0.48,-0.22 -1.29,-0.13 -1.81,-0.13l-0.01 -0.25 0 -0.46 0 -0.11 -0.02 -0.43c-0.04,-0.19 -0.06,-0.34 -0.11,-0.53l-0.09 -0.27c-0.03,-0.07 -0.07,-0.16 -0.12,-0.25 -0.04,-0.09 -0.11,-0.18 -0.13,-0.27 -0.04,-0.02 -0.09,-0.13 -0.12,-0.16 -0.06,-0.07 -0.09,-0.13 -0.13,-0.2 -0.02,0 0,0 -0.02,-0.02l-0.05 -0.03c-0.11,-0.13 -0.14,-0.16 -0.2,-0.22 -0.09,-0.1 -0.23,-0.19 -0.28,-0.26 -0.04,0 -0.06,-0.02 -0.09,-0.04l-0.24 -0.16c-0.76,-0.47 -1.68,-0.63 -2.55,-0.39 -0.09,0.01 -0.34,0.1 -0.39,0.1z"/>
  <path class="fil2" d="M10.27 8.42c-0.23,0.03 -0.33,0.04 -0.53,0.1 -1.17,0.29 -2.11,1.28 -1.62,2.35 0.44,0.96 2.02,1.23 2.65,2.18 0.32,0.49 0.45,1.28 0.02,1.76 -0.39,0.44 -1.45,0.32 -2.05,0.11 -0.86,-0.3 -0.87,-0.61 -1.24,-0.58 -0.24,0.02 -0.58,0.33 -0.16,0.66 0.36,0.29 0.72,0.48 1.23,0.63 1.47,0.45 3.05,0.1 3.74,-0.85 0.15,-0.2 0.32,-0.49 0.32,-0.83 0.01,-0.42 0.02,-0.63 -0.14,-1 -0.47,-1.02 -1.98,-1.36 -2.66,-2.18 -0.18,-0.23 -0.27,-0.59 -0.23,-0.92 0.08,-0.83 1.18,-0.81 1.65,-0.64 0.15,0.05 0.27,0.15 0.48,0.12 0.17,-0.02 0.31,-0.15 0.33,-0.28 0.1,-0.59 -1.35,-0.71 -1.79,-0.63z"/>
 </g>
</svg>
