<?xml version="1.0" encoding="UTF-8"?>
<!DOCTYPE svg PUBLIC "-//W3C//DTD SVG 1.1//EN" "http://www.w3.org/Graphics/SVG/1.1/DTD/svg11.dtd">
<!-- Creator: CorelDRAW 2019 (64-Bit) -->
<svg xmlns="http://www.w3.org/2000/svg" xml:space="preserve" width="500mm" height="500mm" version="1.1" style="shape-rendering:geometricPrecision; text-rendering:geometricPrecision; image-rendering:optimizeQuality; fill-rule:evenodd; clip-rule:evenodd"
viewBox="0 0 50000 50000"
 xmlns:xlink="http://www.w3.org/1999/xlink"
 xmlns:xodm="http://www.corel.com/coreldraw/odm/2003">
 <defs>
  <style type="text/css">
   <![CDATA[
    .fil4 {fill:#E31E24}
    .fil5 {fill:#E31E24}
    .fil3 {fill:#00A0E3}
    .fil1 {fill:black}
    .fil2 {fill:#380014}
    .fil0 {fill:url(#id0)}
   ]]>
  </style>
  <linearGradient id="id0" gradientUnits="userSpaceOnUse" x1="24568" y1="14757.06" x2="24568" y2="48071.75">
   <stop offset="0" style="stop-opacity:1; stop-color:#FFDD00"/>
   <stop offset="1" style="stop-opacity:1; stop-color:#FBB034"/>
  </linearGradient>
 </defs>
 <g id="Layer_x0020_1">
  <metadata id="CorelCorpID_0Corel-Layer"/>
  <path class="fil0" d="M32042.93 20622.47c-53.46,160.4 -1015.92,908.96 -802.04,2192.22 106.95,908.97 695.11,1443.68 1336.73,1817.94 1336.73,748.57 3261.62,53.49 3635.92,-1924.89 0,-588.14 -106.95,-1069.38 -374.3,-1497.13 -160.41,-267.34 -588.15,-748.57 -855.5,-908.97l0 -2833.86c1336.73,0 3368.59,-106.94 4277.54,695.11 802.06,748.57 695.11,2673.46 908.97,3956.73 160.41,1764.49 427.78,3582.43 588.16,5293.44 213.88,1764.49 427.76,3528.95 641.64,5293.44l855.5 8020.39c53.47,802.04 267.35,1871.41 -53.48,2619.98 -267.35,588.17 -855.5,1176.33 -1604.08,1336.73 -802.05,213.88 -1871.4,106.97 -2780.39,106.97l-23633.35 0c-962.43,0 -1978.35,0 -2940.81,0 -908.97,53.46 -1817.94,0 -2513.04,-427.76 -1443.68,-802.06 -1069.39,-2833.88 -855.49,-4651.84 748.57,-6202.43 1336.73,-12351.37 2085.3,-18553.79 106.95,-748.57 160.42,-1871.4 481.23,-2459.58 855.5,-1497.11 2673.46,-1283.25 4651.83,-1229.78l-106.94 2833.88c-320.83,320.79 -588.16,481.22 -855.51,1015.9 -802.04,1443.68 160.42,3368.57 1871.42,3582.45 1817.94,213.86 3154.68,-1443.68 2726.93,-3047.76 -53.46,-267.33 -160.39,-481.23 -267.33,-695.11 -53.48,-160.41 -106.95,-213.86 -213.88,-320.81 -53.46,-106.95 -160.41,-160.41 -213.86,-267.34 -481.24,-160.42 -481.24,-748.58 -481.24,-1336.74 0,-534.69 0,-1176.29 53.48,-1764.49l14864.42 53.49c53.47,320.81 0,1336.73 0,1711 0,695.11 160.42,1069.41 -427.76,1390.2l-0.07 -0.02z"/>
  <path class="fil1" d="M32031.97 20692.56c-53.29,159.86 -1012.41,905.84 -799.28,2184.67 106.58,905.84 692.71,1438.7 1332.12,1811.68 1332.13,746 3250.38,53.29 3623.38,-1918.25 0,-586.13 -106.58,-1065.71 -373,-1491.97 -159.86,-266.42 -586.13,-745.99 -852.55,-905.84l0 -2824.09c1332.13,0 3356.96,-106.58 4262.79,692.7 799.29,746 692.71,2664.25 905.84,3943.09 159.87,1758.41 426.29,3570.09 586.13,5275.21 213.14,1758.41 426.29,3516.79 639.42,5275.2l852.55 7992.73c53.29,799.28 266.42,1864.96 -53.29,2610.96 -266.42,586.13 -852.55,1172.26 -1598.54,1332.12 -799.28,213.13 -1864.97,106.58 -2770.81,106.58l-23551.88 0c-959.13,0 -1971.54,0 -2930.67,0 -905.84,53.29 -1811.68,0 -2504.38,-426.29 -1438.71,-799.28 -1065.71,-2824.09 -852.56,-4635.79 746,-6181.04 1332.13,-12308.8 2078.12,-18489.83 106.58,-745.99 159.87,-1864.96 479.58,-2451.09 852.55,-1491.97 2664.24,-1278.84 4635.79,-1225.55l-106.58 2824.09c-319.71,319.71 -586.13,479.57 -852.55,1012.42 -799.28,1438.7 159.86,3356.95 1864.97,3570.08 1811.67,213.14 3143.8,-1438.7 2717.53,-3037.24 -53.29,-266.42 -159.86,-479.58 -266.42,-692.71 -53.29,-159.86 -106.58,-213.13 -213.13,-319.71 -53.29,-106.57 -159.87,-159.86 -213.13,-266.42 -479.58,-159.86 -479.58,-745.99 -479.58,-1332.12 0,-532.84 0,-1172.26 53.29,-1758.41l14813.19 53.29c53.29,319.71 0,1332.12 0,1705.12 0,692.7 159.86,1065.7 -426.29,1385.41l-0.06 -0.04zm426.29 -5648.19c159.86,-1864.96 53.29,-3889.79 -639.42,-5488.34 -1864.97,-4049.64 -6500.76,-5435.05 -10283.97,-3516.79 -2024.83,1012.41 -3410.23,3037.24 -3836.51,5435.05 -159.87,959.12 -159.87,1971.54 -106.58,2930.67 53.29,799.28 -106.57,639.41 905.84,639.41 532.84,0 1012.42,0 1545.26,0 639.41,0 12095.65,106.58 12415.36,0l0.02 0zm-11083.26 -11722.65c-106.58,159.86 -852.55,479.57 -1012.41,532.84 -373,213.13 -692.71,426.29 -1012.42,639.42 -159.86,106.58 -319.71,266.42 -479.57,373 -213.14,159.86 -319.71,319.71 -532.84,426.28 -53.29,159.87 -426.29,479.58 -586.13,586.13 -213.14,213.13 -319.71,479.57 -586.13,586.13 -53.29,106.58 -426.29,692.71 -532.85,746 -53.28,213.13 -266.42,479.57 -426.28,745.99 -53.29,106.58 -266.42,639.42 -319.71,692.71 -106.58,426.28 -266.42,745.99 -373,1225.54l-159.86 905.84 -159.87 1332.13 0 852.55 -53.28 372.99 0 1758.41 -2078.12 -53.29c-532.84,0 -1118.99,-53.28 -1651.84,0 -426.28,53.29 -1065.7,266.43 -1332.12,266.43 -106.58,106.57 -319.71,159.86 -479.57,266.42 -692.71,426.28 -799.29,639.41 -1118.99,959.12 -106.58,159.87 -213.14,266.42 -266.42,426.29 -53.29,106.58 -159.87,373 -213.14,426.28l-213.13 746 -159.86 745.99 -159.87 1491.97 -53.29 746c0,319.7 0,1118.99 -106.57,1278.83 53.28,319.71 -53.29,1278.84 -106.58,1598.55l-159.86 1598.54 -106.58 746 -53.29 852.55 -266.42 2451.09 -213.13 1971.54 -106.58 1385.42 -106.58 959.12 -213.13 2131.39 -106.57 1225.55 -159.87 1118.99 -53.29 799.28 -159.86 1332.12 -106.58 905.84 -53.29 852.55c-53.28,479.58 -106.57,1172.26 -106.57,1651.84l159.86 692.7c53.29,159.87 159.87,479.58 319.71,746 53.29,159.86 106.58,266.42 213.13,372.99 106.58,159.87 159.87,213.14 266.42,319.71 373,266.42 479.58,532.84 1438.7,852.55 586.13,213.14 1278.84,319.71 2024.83,319.71 1491.97,0 3037.25,0 4582.51,0l6873.75 0 12362.07 0c1971.54,0 3943.09,0 5914.63,0 852.55,0 1918.25,53.29 2770.8,-159.86 692.71,-159.87 1438.7,-746 1758.41,-1118.99 159.87,-213.14 266.42,-319.71 426.29,-586.13 106.57,-213.14 213.13,-479.58 319.71,-639.42l159.86 -746 0 -1012.41 -159.86 -1385.41 -266.42 -2344.54 -106.58 -1438.7 -159.87 -1225.55 -159.86 -1758.41 -159.86 -1598.54 -106.58 -1278.84 -159.87 -1332.12 -106.57 -1172.26 -106.58 -852.55c0,-319.71 -106.57,-799.29 -53.29,-1065.71 -106.57,-159.86 -159.86,-1278.83 -159.86,-1438.7l-53.29 -479.57 -159.86 -1598.55 -106.58 -852.55 -53.29 -905.84 -106.57 -1065.7 -106.58 -1172.26 -53.29 -799.28 -213.13 -1012.42c-106.58,-319.7 -213.13,-745.99 -319.71,-1065.7 -53.29,-106.58 -159.87,-319.71 -213.13,-426.28 -106.58,-213.14 -159.87,-266.43 -266.42,-426.29 -106.58,-53.29 0,0 -106.58,-106.58 -319.71,-319.7 -532.84,-532.84 -1012.42,-745.99 -1438.7,-639.42 -3836.5,-373 -5381.76,-373l-53.29 -745.99 0 -1385.41 0 -319.71 -53.29 -1278.84c-106.57,-586.13 -159.86,-1012.41 -319.7,-1598.54l-266.43 -799.29c-106.57,-213.13 -213.13,-479.57 -372.99,-745.99 -106.58,-266.42 -319.71,-532.84 -373,-799.28 -106.58,-53.29 -266.42,-373 -373,-479.58 -159.86,-213.13 -266.42,-372.99 -372.99,-586.13 -53.29,0 0,0 -53.29,-53.28l-159.87 -106.58c-319.71,-373 -426.28,-479.57 -586.13,-639.42 -266.42,-319.71 -692.7,-586.13 -852.55,-799.28 -106.57,0 -159.86,-53.29 -266.42,-106.58l-692.7 -479.57c-2291.25,-1385.41 -5008.77,-1864.97 -7619.73,-1172.26 -266.42,53.29 -1012.42,319.71 -1172.26,319.71l0.22 0.14z"/>
  <path class="fil2" d="M38046.87 34203.41l-468.03 0c-47.48,88.27 -130.27,168.14 -166.44,220.1 -18.36,26.38 -36.25,54.1 -53.67,82.99 112.78,133.97 -75.28,291.56 -130.63,370.4 -35.52,50.59 -68.94,107.1 -99.99,168.29 -3.74,12.37 -7.41,24.81 -11.02,37.31l869.08 0c-19.27,-38.14 -39.22,-72.19 -59.52,-101.17 -219.01,-312.64 -207.75,-82.99 -119.99,-585.29 170.25,20.69 284.78,47.68 391.62,70.7 -129.46,-165.64 -167.14,-146.55 -151.41,-263.33z"/>
  <rect class="fil2" x="27472.04" y="35082.49" width="11750.95" height="5176.55"/>
  <rect class="fil2" x="22551.38" y="34934.74" width="6044.41" height="5110.07"/>
  <path class="fil2" d="M22283.18 40344.88l830.83 318.91c1096.43,45.55 1740.98,-35.16 2280.78,-703.84 442.33,-547.94 500.78,-1556.09 122.69,-2212.21 -955.56,-1658.12 -3272.03,-1318.96 -3307.98,-2626.34 872.75,-712.74 1052.85,435.3 1678.38,765.16 456.53,240.75 1692.85,317.99 1314.79,-1144.66 -297.94,48.89 -300.21,203.49 -796.06,135.83 -716.15,-97.71 -966.62,-830.84 -2250.58,-654.04 -1089.35,149.99 -1472.4,1422.76 -968.92,2353.3 432.47,799.26 1423.4,924.98 2281.62,1453.92 1128.6,695.54 1011.47,1962.3 -48.45,2062.27 205.65,-682.91 216.58,-1324.31 -220.75,-1817.18 -1330.37,-1499.26 -3439.2,46.15 -1378.37,1758.52 133.99,111.33 310.14,207.84 462.02,310.36z"/>
  <path class="fil3" d="M22552.43 40087.21l679.4 369.33c7.94,-8.26 15.95,-16.49 24.04,-24.66 913.94,45.53 1443.54,-15.29 1885.49,-614.38 354.43,-480.45 401.27,-1364.42 98.3,-1939.73 -765.67,-1453.88 -2621.82,-1156.5 -2650.62,-2302.84 699.31,-624.95 843.63,381.69 1344.85,670.91 365.81,211.1 1356.46,278.83 1053.53,-1003.67 -238.74,42.88 -240.56,178.44 -637.87,119.11 -573.84,-85.68 -774.55,-728.5 -1803.36,-573.49 -872.88,131.52 -1179.81,1247.52 -776.38,2063.44 346.53,700.82 1140.54,811.05 1828.22,1274.84 904.34,609.86 810.48,1720.59 -38.82,1808.24 164.78,-598.79 173.55,-1161.18 -176.88,-1593.34 -1066.01,-1314.59 -2755.78,40.46 -1104.47,1541.91 80.09,72.82 178.98,138.39 274.57,204.33z"/>
  <path class="fil2" d="M27294.75 34578.76c-382.12,-81.55 -392.33,-170.58 -654.16,20.62 4.52,18 1.97,44.73 4.7,55.43 132.99,521.48 516.91,69.42 116.7,1660.1 -537.98,-11.5 -988.05,-54.91 -1255.84,370.61 -331.96,527.52 -142.47,1013.77 80.36,1417.94 56.21,-36.37 678.68,-790.44 783.6,-152.3l-62.02 601.19c-342.13,1515.52 -995.71,1067.69 -730.63,1794.72 315.56,91.15 690.46,-77.78 1124,-57.83 386.73,17.82 700.58,225.98 951.21,92.92 396.17,-412.33 -581.08,-358.92 -444.23,-1828.17 881.23,135.38 351.25,188.1 1142.36,18.5 190.89,-40.91 81.82,-87.38 197.3,20.97 256.94,288.54 117,840.73 -31.24,1125.56 -272.32,523.26 -396.68,345.7 -13.63,901.1 419.13,58.44 889.7,-63.14 1335.11,-16.59 402.98,42.13 664.06,179.63 1004.59,224.49l160.84 -369.44c-356.7,-472.53 -452.13,-444.22 -688.8,-1224.32 -150.17,-494.98 -297.92,-983.53 -443.65,-1482.83 -180.67,-618.9 -485.87,-1770.46 -457.84,-2417.91 21.91,-505.75 122.57,-350.32 259.69,-678.12 -574.25,-438.85 -990.54,219.55 -2378.42,-76.64z"/>
  <path class="fil2" d="M37048.78 36548.21c-168.53,-646.81 14.59,-1623.13 363.63,-2124.7 77.3,-111.09 367.95,-349.84 70.31,-525.33 -166.59,-98.22 -1152.69,178.53 -1369.23,205.27 -826.02,102.04 -893.14,-62.4 -1306.78,15.52l-135.07 51.02c-146,317.87 67.28,426.17 194.5,694.98 473.02,999.53 557.57,2994.11 376.2,4124.97 -170.68,1064.34 -460.97,942.77 -318.28,1326.55l298.43 5.62c303.64,-57.89 325.5,-160.62 929.54,-161.69 437.14,-0.77 969.06,172.36 1295.39,83.09 16.23,-852.3 -783.41,-941.18 -277.22,-2381.76 790.49,38.73 -49.83,235.4 1329.67,37.66 -7.58,2080.71 -972.99,2608.38 298.9,2257.54 885.59,-244.27 1537.51,5.03 1992.97,-155.21 128.42,-382.37 -294.6,-850.46 -434.24,-1314.04 -131.06,-435.07 -200.25,-1079.31 -226.81,-1541.19 -79.96,-1390.36 -36.67,-2009.8 709.24,-2886.72l-323.68 -528.66c-396.96,50.45 -682.09,201.42 -1144.48,237.03 -640.21,49.3 -721.94,-68.03 -1256.94,-133.63 -106.53,615.25 -120.21,333.96 145.68,716.9 276.66,398.45 502.53,1565.18 34.23,2129.48 -604.84,-9.53 -284.44,-271.35 -1245.96,-132.7z"/>
  <path class="fil2" d="M30832.76 35421.99l-4.06 122.59c156.02,149.22 286.61,360.39 374.17,645.32 214.02,696.29 47.74,3104.09 -135.15,3567.35 -214.7,543.92 -482.06,346.98 -641.85,722.68 487.58,476.09 787.27,96.01 1619.43,-12.88 1148.8,-150.28 1344.29,41.55 1878.41,-77.36 29.87,-6.64 76.01,-60.76 97.35,-37.65 21.83,23.62 67.73,-24.72 96.67,-43.02 177.21,-419.37 -31.7,-277.3 -367.96,-521.55 -949.26,-689.55 -661.64,-2798.79 -592.53,-3709.93 20.38,-268.85 42.57,-463.26 116.84,-613.18 -70.97,32.7 -135.48,67.7 -192.52,104.73l-1278.95 -36.62c91.9,-219.47 -444.35,-137.42 -919.96,-113.08l-49.89 2.6z"/>
  <path class="fil2" d="M31985.69 36436.86l810.61 38.36c334.91,-359.53 1073.99,-539.7 1763.97,-240.92 335.58,145.32 318.58,249.54 695.74,40.64l17.48 -123.92c4.35,-314.4 -125.05,-577.75 -140.84,-1073.53 -10.67,-334.93 130.92,-894.36 96.36,-1064.02 -529.26,-195.14 -273.06,111.36 -1306.14,397.09 -1064.07,294.31 -2949.47,471.78 -3954.68,119.11 -208.14,-73.03 -415.03,-299.66 -665.45,-111.55l-47.44 183.23c-0.34,17.26 -0.87,37.69 0.33,56.21 0.3,4.78 53.84,187.44 56.02,194.85 134.49,454.32 111,1059.96 41.79,1501.66 -32.27,205.83 -249.47,907.25 292.25,660.31 104.24,-47.54 189.64,-262.97 734.11,-478.7 180.66,-71.57 339.87,-118.02 506.18,-150.85 157.7,-31.12 321.8,-50.01 516.61,-66.51 301.45,-25.5 641.34,-111.47 583.1,118.54z"/>
  <path class="fil3" d="M27476.28 34781.62c-316.92,-69.29 -325.39,-144.94 -542.55,17.53 3.75,15.29 1.64,38 3.9,47.1 110.31,443.1 428.72,58.98 96.8,1410.62 -446.21,-9.78 -819.48,-46.66 -1041.58,314.91 -275.33,448.25 -118.16,861.43 66.64,1204.85 46.63,-30.9 562.9,-671.64 649.92,-129.4l-51.45 510.84c-283.75,1287.76 -825.83,907.23 -605.98,1525.01 261.73,77.45 572.67,-66.09 932.24,-49.14 320.75,15.15 581.05,192.02 788.92,78.96 328.58,-350.37 -481.94,-304.98 -368.44,-1553.43 730.88,115.03 291.32,159.83 947.46,15.71 158.32,-34.76 67.86,-74.24 163.64,17.82 213.1,245.18 97.03,714.39 -25.92,956.42 -225.85,444.61 -328.99,293.75 -11.3,765.68 347.63,49.66 737.91,-53.65 1107.32,-14.1 334.23,35.8 550.77,152.63 833.2,190.75l133.4 -313.92c-295.85,-401.51 -374.99,-377.46 -571.29,-1040.33 -124.54,-420.59 -247.09,-835.73 -367.96,-1259.99 -149.83,-525.9 -402.96,-1504.4 -379.72,-2054.55 18.17,-429.75 101.66,-297.67 215.38,-576.22 -476.27,-372.89 -821.54,186.56 -1972.63,-65.12z"/>
  <path class="fil3" d="M31408.89 35670.27c58.39,114.57 107.91,255.58 145.14,426.2 135.68,621.71 30.25,2771.65 -85.69,3185.3 -136.11,485.65 -305.61,309.83 -406.92,645.28 309.12,425.13 499.13,85.75 1026.68,-11.49 728.32,-134.18 852.25,37.11 1190.88,-69.09 18.93,-5.93 48.18,-54.26 61.72,-33.61 13.82,21.08 42.93,-22.08 61.28,-38.41 112.34,-374.45 -20.1,-247.61 -233.27,-465.7 -601.81,-615.7 -419.49,-2499.06 -375.68,-3312.63 9.57,-177.5 19.76,-318.65 43.45,-434.29l-8.52 2.77 -1.42 0.47 -14.1 4.75 -1.39 0.47 -8.39 2.92 -0.2 0.07 -12.58 4.51 -9.56 3.5 -10.75 4.06 -0.04 0.01 -8.17 3.16 -2.63 1.04 -12.03 4.79 -1.55 0.63 -8.05 3.3 -0.74 0.32 -12.88 5.44 -2.31 0.99 -7.9 3.42 -0.2 0.1 -7.53 3.33 -11.78 5.38 -10.18 4.74 -1.41 0.66 -7.66 3.66 -1.61 0.79 -10.18 5 -12.05 6.07 -5.63 2.89 -14.21 7.51 -6.53 3.54 -12.79 7.07 -6.81 3.87 -12.19 7.09 -5.68 3.36c-4.99,2.99 -9.95,6.02 -14.85,9.07l-3.23 2.01c-5.5,3.46 -10.96,6.92 -16.36,10.45l-0.29 0.19 -0.46 0.32c-5.07,3.33 -10.09,6.69 -15.06,10.07l-3.76 2.55c-4.93,3.39 -9.8,6.82 -14.63,10.26l-2.69 1.94c-5.04,3.61 -10.01,7.29 -14.95,11l-0.82 0.61 -1.06 0.82c-5.16,3.9 -10.24,7.83 -15.28,11.79l-0.37 0.28c-5.26,4.17 -10.44,8.36 -15.56,12.59l-0.84 0.69c-5.14,4.29 -10.23,8.6 -15.23,12.95l-0.02 0.02c-4.93,4.29 -9.79,8.61 -14.59,13l-0.59 0.53 -0.48 0.44c-4.58,4.2 -9.08,8.43 -13.54,12.7l-1.21 1.17c-4.44,4.27 -8.82,8.58 -13.12,12.93l-1.41 1.45c-4.36,4.41 -8.66,8.88 -12.87,13.37l-695.14 -32.69c0.74,-2.86 1.37,-5.66 1.96,-8.41l0.27 -1.4c0.5,-2.45 0.96,-4.87 1.35,-7.23l0.15 -0.82c0.41,-2.56 0.76,-5.06 1.03,-7.51l0.19 -2.01c0.17,-1.73 0.32,-3.47 0.42,-5.16l0.12 -2.13c0.09,-2.05 0.14,-4.07 0.13,-6.04l0.01 -0.6c-0.02,-2.26 -0.11,-4.45 -0.26,-6.6l-0.1 -1.18c-0.15,-1.77 -0.33,-3.53 -0.56,-5.23zm-2.72 -12.8l-0.39 -1.24c-0.48,-1.52 -1.02,-3.02 -1.57,-4.48l-0.32 -0.83c-0.69,-1.73 -1.42,-3.41 -2.23,-5.03l-0.37 -0.68c-0.72,-1.43 -1.5,-2.84 -2.33,-4.21l-0.49 -0.8c-0.88,-1.41 -1.8,-2.8 -2.77,-4.13l-0.29 -0.41c-1.05,-1.42 -2.15,-2.78 -3.3,-4.12l-0.9 -1.01 -2.74 -2.9 -1.11 -1.09c-1.16,-1.1 -2.34,-2.18 -3.58,-3.24l-0.3 -0.28 -0.1 -0.08c-1.32,-1.1 -2.68,-2.15 -4.1,-3.17l-1.47 -1.04 -3.3 -2.22 -1.33 -0.85c-1.62,-0.99 -3.25,-1.93 -4.97,-2.86l-0.15 -0.08c-1.61,-0.86 -3.24,-1.68 -4.93,-2.46l-1.65 -0.77 -4.1 -1.78 -1.45 -0.61c-1.86,-0.76 -3.78,-1.46 -5.74,-2.14l-1.34 -0.46 -4.61 -1.47 -2.05 -0.63 -5.66 -1.56 -0.45 -0.12 -0.24 -0.07 -6.38 -1.49 -1.85 -0.39 -5.98 -1.2 -0.79 -0.14 -7.21 -1.21 -0.42 -0.06 -0.69 -0.1 -6.2 -0.84 -2.82 -0.35 -5.61 -0.61 -1.28 -0.15 -1.13 -0.11 -6.32 -0.55 -1.23 -0.09 -1.07 -0.06 -7.71 -0.49 -0.27 -0.02 -8.79 -0.39 -0.25 -0.01 -0.43 -0.02 -6.82 -0.19 -2.14 -0.05 -2.18 -0.01 -5.55 -0.06 -1.87 -0.02 -2.25 0 -7.16 0.05 -0.41 0 -6.86 0.12 -0.51 0.02 -6.09 0.16 -0.76 0.01 -6 0.19 -1.48 0.06 -7.57 0.32 -1.33 0.06 -6.33 0.33 -4.23 0.24 -3.52 0.2 -7.21 0.46 -0.62 0.04 -7.92 0.55 -2.35 0.18 -5.65 0.42 -5.38 0.43 -2.7 0.22 -8.14 0.7 -0.34 0.02 -7.89 0.72 -8.27 0.77 -6.57 0.63 -1.78 0.19 -8.41 0.83 -1.36 0.14 -7.11 0.74z"/>
  <path class="fil3" d="M32003.82 35970.62l695.15 25.25c287.2,-236.61 921.01,-355.19 1512.7,-158.55 287.79,95.64 273.21,164.22 596.64,26.74l15 -81.55c3.72,-206.92 -107.24,-380.23 -120.78,-706.51 -9.15,-220.43 112.27,-588.61 82.63,-700.26 -453.87,-128.43 -234.17,73.28 -1120.09,261.33 -912.51,193.69 -2529.35,310.49 -3391.38,78.39 -178.49,-48.06 -355.91,-197.21 -570.66,-73.41l-40.69 120.58c-0.28,11.37 -0.74,24.81 0.29,37 0.25,3.15 46.17,123.36 48.04,128.23 115.33,299 95.19,697.59 35.84,988.28 -27.68,135.47 -213.94,597.08 250.62,434.56 89.4,-31.28 162.62,-173.06 629.54,-315.04 154.93,-47.1 291.46,-77.67 434.08,-99.28 135.24,-20.48 275.97,-32.91 443.03,-43.77 258.5,-16.78 549.99,-73.36 500.04,78.01z"/>
  <path class="fil3" d="M36928.59 36611.57c-138.81,-528.07 12.02,-1325.17 299.51,-1734.67 63.67,-90.7 303.07,-285.62 57.91,-428.9 -137.21,-80.19 -949.42,145.76 -1127.77,167.59 -680.37,83.31 -735.65,-50.95 -1076.35,12.67l-111.25 41.65c-120.26,259.53 55.41,347.94 160.2,567.41 389.61,816.04 459.25,2444.48 309.86,3367.76 -140.59,868.95 -379.68,769.7 -262.15,1083.03l245.8 4.59c250.1,-47.26 268.1,-131.14 765.63,-132.01 360.05,-0.63 798.17,140.72 1066.96,67.84 13.37,-695.85 -645.27,-768.41 -228.34,-1944.54 651.1,31.61 -41.04,192.18 1095.2,30.74 -6.24,1698.76 -801.41,2129.56 246.19,1843.13 729.42,-199.43 1266.38,4.11 1641.53,-126.72 105.77,-312.18 -242.65,-694.34 -357.66,-1072.83 -107.96,-355.2 -164.94,-881.18 -186.82,-1258.27 -65.86,-1135.13 -30.2,-1640.86 584.17,-2356.81l-266.6 -431.61c-326.96,41.19 -561.81,164.44 -942.67,193.52 -527.31,40.24 -594.63,-55.55 -1035.28,-109.11 -87.75,502.31 -99.01,272.66 119.99,585.3 227.87,325.31 413.91,1277.87 28.19,1738.58 -498.18,-7.78 -234.28,-221.54 -1026.25,-108.34z"/>
  <polygon class="fil2" points="28582.5,37361.93 27504.31,37415.23 28131.93,35562.13 "/>
  <path class="fil4" d="M25064.85 37979.7c34.77,82.94 32.09,88.29 -121.75,-60.2 -153.84,-148.49 -458.85,-450.83 -624.73,-596.65 -165.9,-145.81 -192.64,-135.11 -177.92,-8.02 14.71,127.08 70.89,370.57 46.81,397.31 -24.08,26.76 -128.43,-163.2 -263.54,-331.76 -135.12,-168.57 -301,-315.71 -476.25,-422.74 -175.25,-107.01 -359.85,-173.91 -485.61,-176.6 -125.75,-2.66 -192.65,58.88 -212.71,136.47 -20.07,77.59 6.69,171.23 42.82,284.94 36.11,113.71 81.6,247.5 81.6,294.31 0,46.83 -45.49,6.69 -143.14,-42.81 -97.66,-49.5 -247.5,-108.35 -378.59,-191.29 -131.1,-82.94 -243.48,-189.97 -322.41,-297 -78.92,-107.01 -124.41,-214.03 -161.86,-313.02 -37.46,-99 -66.9,-189.97 -86.96,-284.95 -20.07,-94.98 -30.77,-193.98 -36.12,-288.97 -5.36,-94.97 -5.36,-185.94 13.38,-287.61 18.72,-101.67 56.18,-214.05 109.7,-321.08 53.51,-107.01 123.07,-208.68 193.97,-291.63 70.9,-82.94 143.14,-147.14 218.06,-196.64 74.91,-49.5 152.5,-84.29 235.44,-108.37 82.94,-24.07 171.25,-37.45 262.22,-44.14 90.96,-6.69 184.6,-6.69 260.86,12 76.25,18.7 135.11,56.1 200.66,90.88 65.55,34.77 137.79,66.96 230.1,117.82 92.31,50.87 204.67,120.43 295.65,176.61 90.97,56.2 160.53,99 232.77,133.78 72.23,34.79 147.15,61.54 255.52,84.28 108.35,22.74 250.15,41.48 367.88,26.76 117.72,-14.72 211.37,-62.87 250.16,-26.76 38.8,36.13 22.74,156.52 -6.68,270.23 -29.44,113.72 -72.24,220.73 -132.44,294.31 -60.2,73.58 -137.79,113.72 -222.07,135.12 -84.29,21.4 -175.25,24.08 -268.89,8.03 -93.66,-16.06 -189.97,-50.85 -270.24,-103.02 -80.27,-52.17 -144.48,-121.73 -197.46,-186.43 -52.98,-64.69 -94.73,-124.5 -146.31,-188.6 -51.58,-64.08 -112.98,-132.44 -181.74,-190.82 -68.77,-58.38 -144.86,-106.79 -220.38,-140.36 -75.51,-33.56 -150.42,-52.3 -230.68,-63 -80.27,-10.71 -165.89,-13.37 -240.54,8.02 -74.66,21.4 -138.36,66.9 -181.16,117.73 -42.81,50.83 -64.74,107.03 -72.18,165.09 -7.44,58.07 -0.39,118.01 18.34,187.57 18.72,69.57 49.14,148.76 100.47,232.49 51.32,83.74 123.57,172.03 193.14,242.93 69.55,70.91 136.44,124.41 222.06,180.59 85.61,56.2 189.96,115.05 306.34,164.55 116.39,49.5 244.82,89.64 382.61,145.82 137.79,56.19 284.95,128.42 413.38,203.33 128.42,74.92 238.12,152.52 359.86,260.87 121.73,108.37 255.52,247.5 358.53,397.33 103,149.83 175.24,310.36 210.03,393.3z"/>
  <path class="fil4" d="M26256.79 36826.54c-65.55,-21.4 -52.17,-181.94 -9.35,-283.61 42.79,-101.67 115.04,-144.47 205.7,-172.67 90.67,-28.19 199.76,-41.77 297.41,-36.42 97.66,5.36 183.89,29.62 259.1,15 75.23,-14.61 139.43,-68.11 179.56,-177.81 40.14,-109.7 56.2,-275.58 82.95,-442.81 26.76,-167.21 64.21,-335.76 49.49,-456.16 -14.71,-120.4 -81.6,-192.65 -131.09,-240.85 -49.5,-48.19 -81.61,-72.33 -78.94,-103.1 2.68,-30.76 40.14,-68.16 127.1,-60.1 86.96,8.07 223.4,61.57 472.22,89.66 248.84,28.09 610.03,30.77 832.09,6.69 222.08,-24.08 305.03,-74.91 385.29,-103 80.27,-28.09 157.86,-33.45 212.71,-20.07 54.85,13.38 86.96,45.48 81.61,88.8 -5.35,43.33 -48.17,97.86 -73.59,186.16 -25.41,88.3 -33.44,210.34 -26.76,391.77 6.7,181.42 28.11,422.21 57.56,656.5 29.46,234.29 66.98,462.07 112.46,639.99 45.49,177.93 98.94,305.99 139.04,419.52 40.11,113.54 66.87,212.53 -24.11,77.41 -90.96,-135.11 -299.65,-504.33 -410.69,-672.89 -111.03,-168.55 -124.41,-136.46 -125.75,-8.04 -1.33,128.44 9.36,353.19 -24.08,383.95 -33.45,30.77 -111.04,-132.43 -169.9,-264.88 -58.86,-132.44 -99,-234.1 -119.07,-367.89 -20.06,-133.77 -20.06,-299.65 -45.48,-452.16 -25.41,-152.5 -76.25,-291.63 -108.36,-395.98 -32.1,-104.35 -45.48,-173.9 -117.72,-200.66 -72.24,-26.76 -203.33,-10.7 -291.62,72.24 -88.29,82.94 -133.79,232.78 -167.23,369.22 -33.44,136.45 -54.85,259.54 -99,433.44 -44.14,173.91 -111.03,398.65 -168.56,587.27 -57.52,188.64 -105.68,341.14 -156.53,484.29 -50.83,143.14 -104.33,276.92 -112.36,181.93 -8.02,-94.98 29.42,-418.72 28.09,-596.65 -1.34,-177.92 -41.47,-210.03 -119.05,-212.71 -77.59,-2.67 -192.64,24.09 -275.58,96.33 -82.94,72.23 -133.79,189.96 -251.52,306.35 -117.72,116.38 -302.32,231.43 -333.1,204.67 -30.77,-26.75 92.31,-195.3 163.21,-325.07 70.91,-129.77 89.63,-220.73 26.76,-207.36 -62.87,13.38 -207.36,131.1 -272.91,109.7z"/>
  <ellipse class="fil4" cx="29035.34" cy="37904.78" rx="168.55" ry="180.6"/>
  <ellipse class="fil4" cx="29187.85" cy="38603.1" rx="260.86" ry="244.81"/>
  <ellipse class="fil4" cx="29359.76" cy="39376.62" rx="321.06" ry="305.01"/>
  <path class="fil5" d="M29894.2 35879.4c0,-136.46 32.1,-323.74 30.77,-505.68 -1.34,-181.93 -36.13,-358.52 -40.14,-458.85 -4.01,-100.33 22.74,-124.42 97.65,-116.39 74.92,8.03 198,48.17 409.36,82.95 211.38,34.78 511.03,64.21 789.29,78.92 278.26,14.72 535.11,14.72 830.76,4.02 295.65,-10.7 630.09,-32.11 944.46,-68.23 314.38,-36.12 608.69,-86.96 845.48,-152.51 236.78,-65.56 416.04,-145.81 535.1,-185.96 119.07,-40.13 177.92,-40.13 191.3,2.69 13.38,42.81 -18.72,128.42 -34.77,240.78 -16.06,112.38 -16.06,251.52 -1.35,363.89 14.72,112.38 44.16,197.99 74.92,264.88 30.78,66.89 62.87,115.04 65.54,171.23 2.68,56.19 -24.06,120.4 -58.85,140.47 -34.78,20.07 -77.59,-4.02 -140.47,-32.11 -62.87,-28.09 -145.81,-60.2 -303.67,-84.29 -157.85,-24.07 -390.63,-40.11 -618.05,-62.85 -227.42,-22.75 -449.49,-52.18 -614.16,-27.28 -164.66,24.9 -271.92,104.12 -316.06,240.57 -44.15,136.45 -25.18,330.13 -11.69,512.58 13.5,182.46 21.53,353.7 32.22,520.92 10.7,167.23 24.09,330.43 1.33,476.24 -22.74,145.82 -81.59,274.25 -116.38,418.73 -34.78,144.48 -45.48,305.02 -70.9,252.84 -25.41,-52.17 -65.54,-317.06 -76.25,-537.79 -10.7,-220.73 8.04,-397.31 -17.38,-462.86 -25.43,-65.56 -94.98,-20.06 -159.2,80.27 -64.22,100.33 -123.07,255.51 -163.21,413.35 -40.13,157.86 -61.54,318.41 -72.24,468.23 -10.7,149.83 -10.7,288.97 -37.46,254.18 -26.76,-34.78 -80.26,-243.47 -119.05,-430.76 -38.8,-187.29 -62.89,-353.18 -49.51,-531.1 13.38,-177.92 64.21,-367.89 111.03,-533.77 46.83,-165.88 89.64,-307.69 105.47,-448.97 15.85,-141.27 4.71,-282.01 -44.13,-371.86 -48.83,-89.84 -135.36,-128.78 -278.3,-145.37 -142.92,-16.58 -342.23,-10.8 -552.93,28.2 -210.69,39.01 -432.76,111.26 -618.71,191.52 -185.95,80.27 -335.78,168.56 -426.75,169.9 -90.97,1.33 -123.07,-84.28 -123.07,-220.73z"/>
  <ellipse class="fil4" cx="32129.6" cy="38526.84" rx="188.62" ry="164.53"/>
  <ellipse class="fil4" cx="32101.51" cy="39301.41" rx="345.14" ry="337.11"/>
  <path class="fil4" d="M35685.4 36958.98c-20.06,-346.49 -68.22,-723.73 -133.77,-1041.61 -65.55,-317.87 -148.49,-576.38 -212.71,-746.27 -64.2,-169.89 -109.7,-251.19 -86.96,-301.2 22.76,-50.01 113.72,-68.74 216.73,-62.06 103.01,6.7 218.06,38.8 359.87,48.17 141.8,9.36 310.35,-4.02 501.66,-60.2 191.3,-56.19 405.35,-155.18 535.1,-195.32 129.77,-40.13 175.26,-21.4 172.58,13.38 -2.67,34.78 -53.51,85.62 -103.01,176.58 -49.5,90.98 -97.66,222.07 -151.17,385.28 -53.52,163.21 -112.37,358.52 -136.46,552.49 -24.07,193.99 -13.37,386.63 10.7,552.51 24.09,165.88 61.55,305.02 96.33,412.03 34.79,107.03 66.89,181.94 0,148.5 -66.89,-33.45 -232.77,-175.25 -326.41,-371.91 -93.65,-196.65 -115.05,-448.14 -143.14,-596.64 -28.09,-148.49 -62.89,-193.98 -93.66,-121.74 -30.76,72.25 -57.52,262.2 -78.92,432.1 -21.41,169.9 -37.45,319.74 -78.93,532.44 -41.46,212.7 -108.36,488.28 -169.9,702.33 -61.53,214.04 -117.73,366.54 -141.8,284.93 -24.08,-81.59 -16.06,-397.31 -36.13,-743.79z"/>
  <path class="fil4" d="M37995.74 34593.8c-101.66,-1.34 -104.34,57.52 -66.88,128.42 37.46,70.9 115.05,153.86 175.25,275.59 60.2,121.74 103,282.27 133.76,462.87 30.77,180.6 49.51,381.26 44.16,567.21 -5.36,185.95 -34.79,357.19 -8.04,319.73 26.76,-37.46 109.71,-283.6 156.19,-516.91 46.49,-233.3 56.51,-453.74 104.66,-497.88 48.16,-44.15 134.47,88 169.58,210.26 35.12,122.26 19.08,234.64 -11.69,368.42 -30.77,133.77 -76.26,288.96 -65.56,434.77 10.71,145.83 77.59,282.27 109.7,346.48 32.11,64.22 29.43,56.19 49.5,-52.17 20.07,-108.36 62.87,-317.05 103,-434.78 40.14,-117.72 77.6,-144.48 104.36,58.87 26.75,203.34 42.8,636.78 79.22,674.24 36.43,37.46 93.25,-321.08 113.31,-571.24 20.07,-250.16 3.39,-391.96 -57.12,-555.17 -60.51,-163.21 -164.85,-347.81 -245.12,-473.06 -80.26,-125.23 -136.45,-191.09 -53.5,-212.5 82.94,-21.39 305.01,1.65 494.97,-72.44 189.97,-74.09 347.82,-245.33 402.67,-360.38 54.85,-115.05 6.69,-173.9 -115.05,-169.9 -121.74,4.02 -317.05,70.92 -515.04,113.72 -197.99,42.81 -398.66,61.54 -599.33,40.14 -200.66,-21.41 -401.32,-82.96 -503,-84.29z"/>
  <ellipse class="fil4" cx="38817.82" cy="37283.83" rx="200.66" ry="208.69"/>
  <ellipse class="fil4" cx="38851.91" cy="38129.53" rx="268.88" ry="244.81"/>
  <ellipse class="fil4" cx="38860.88" cy="39000.42" rx="362.12" ry="268.89"/>
  <rect class="fil2" transform="matrix(1.15095 0.0401922 -0.0401922 1.15095 15556.6 27624.7)" width="1957.92" height="1508.13"/>
  <rect class="fil2" transform="matrix(1.49209 0.052105 -0.0568546 1.6281 11036.2 28114.2)" width="9683.75" height="2989.79"/>
  <path class="fil2" d="M10732.04 33023.06l936.89 303.3c1007.05,62.43 1623.94,-18.32 2163.98,-611.34 466.64,-512.4 560.98,-1480.84 201.37,-2125.28 -908.82,-1628.58 -3264.2,-1380.89 -3254.91,-2640.58 907.83,-656.39 1049.95,454.83 1671.26,793.61 453.46,247.27 1701.53,363.67 1370.14,-1057.12 -303.13,36.93 -310.83,185.68 -810.11,103.68 -721.11,-118.41 -948.91,-832.63 -2254.04,-706.11 -1107.32,107.33 -1539.29,1319.46 -1062.42,2232.3 409.61,784.07 1407.73,938.79 2257.51,1477.13 1117.5,707.89 954.77,1923.28 -121.04,1983.46 231.9,-650.37 265.37,-1267.39 -159.87,-1756.7 -1293.56,-1488.41 -3480.99,-72.54 -1455.89,1645.86 149.84,127.15 355.64,237.66 517.13,357.79z"/>
  <path class="fil2" d="M18578.78 30900.91c41.46,1586.23 1432.66,3080.6 3105.19,2815.18 765.78,-121.51 1290.53,-552.81 1772.27,-1173.23 902.64,-1162.5 899.76,-3429.73 -334.04,-4603.29 -989.01,-940.73 -2530.7,-1000.14 -3601.42,75.44 -795.05,798.66 -979.05,1467.49 -942,2885.9z"/>
  <path class="fil2" d="M23709.39 27406.16c-82.82,524.89 -171.84,289.12 77.14,708.12 394.24,663.49 419.26,1678.48 404.77,2443.64 -66.05,3487.78 -778.38,2183.47 -752.93,3082.28 343.23,12.87 919.27,-121.52 1326.41,-151.5 422.67,-31.13 1084.22,39.49 1395.9,-81.35 609.81,-445.1 -1018.78,-968.31 -277.28,-2594.52 2930.19,261.91 3665.35,-1964.32 3067.27,-2951.11 -375.94,-620.25 -1394.11,-1013.35 -2447.57,-864.43 -1641.13,232.02 -376.41,450.35 -2793.71,408.87z"/>
  <path class="fil3" d="M11020.41 32818.74l441.31 201.56c5.4,-5.2 10.86,-10.39 16.32,-15.54 865.35,73.46 1369.68,33.31 1808.7,-520.27 352.09,-443.96 425.79,-1280.84 157.49,-1836.54 -678.07,-1404.34 -2448.44,-1183.75 -2437.8,-2271.99 683.99,-569.59 787.53,389.96 1253.35,680.89 339.98,212.34 1277.34,309.39 1032.5,-917.07 -227.86,32.76 -234.08,161.28 -608.96,91.85 -541.44,-100.27 -710.51,-716.63 -1691.45,-603.67 -832.27,95.83 -1160.35,1144.17 -804.73,1931.41 305.47,676.19 1054.92,807.04 1691.81,1269.71 837.54,608.4 711.73,1658.79 -96.71,1713.8 176.12,-562.48 203.06,-1095.61 -115,-1517.11 -967.54,-1282.17 -2615.14,-52.9 -1098.64,1425.89 130.36,127.11 317.49,234.62 443.24,358.53 2.89,2.85 5.74,5.7 8.57,8.55z"/>
  <path class="fil2" d="M15712.41 30020.41c-158.92,-608.34 68.34,-1510.28 457.33,-1964.15 86.15,-100.52 404.24,-311.92 92.15,-486.36 -174.69,-97.64 -1236.57,123.2 -1468.64,140.02 -885.29,64.17 -951.61,-91.39 -1395.8,-34.28l-145.88 42.45c-166.22,290.44 57.98,399.2 185.08,654.15 472.58,948.02 498.02,2807.76 267.61,3853.63 -216.85,984.34 -522.84,860.36 -382.96,1222.9l318.46 16.37c326.09,-42.57 352.76,-137.38 997.76,-115.85 466.77,15.58 1029.09,196.56 1380.42,125.64 45.04,-792.73 -805.88,-905.28 -218.58,-2227.32 842.78,65.52 -60.85,217.26 1418.51,84.63 -75.72,1936.48 -1123.67,2391.65 245.77,2112.5 953.51,-194.34 1641.48,62.02 2133,-70.16 149.54,-351.12 -286.91,-802.61 -420.94,-1239.32 -125.8,-409.86 -178.73,-1012.11 -192.07,-1443.02 -40.18,-1297.15 26.17,-1872.13 851.1,-2660.57l-328.41 -504.15c-425.49,32.16 -734.85,162.04 -1229.71,177.95 -685.17,22.02 -768.63,-90.24 -1337.73,-171.25 -133.75,568.71 -139.2,306.37 132.25,672.73 282.45,381.21 485.69,1475.64 -32.68,1983.44 -645.49,-31.42 -294.88,-263.18 -1326.04,-169.98z"/>
  <path class="fil2" d="M23265.69 29376.22l767.58 63.23c329.57,-329.9 1036.54,-476.32 1681.07,-170.07 313.48,148.95 293.91,247.23 658.55,61.59l20.69 -116.96c14.53,-298.06 -99.48,-552.13 -98.03,-1022.88 0.97,-318.03 153.8,-843.95 126.63,-1006.02 -495.52,-202.61 -262.68,96.58 -1252,333.37 -1018.99,243.91 -2813.13,349.79 -3754.88,-18.01 -194.99,-76.16 -383.72,-297.97 -627.47,-127.84l-51.07 172.21c-0.88,16.37 -2.07,35.73 -1.54,53.33 0.12,4.55 44.86,179.57 46.68,186.67 112.51,435.37 70.18,1009.03 -10.1,1425.68 -37.43,194.16 -266.67,852.24 255.32,635.96 100.45,-41.63 188.58,-243.13 712.15,-429.71 173.72,-61.9 326.26,-100.68 485.09,-126.32 150.61,-24.29 306.89,-36.77 492.2,-45.97 286.76,-14.2 611.99,-84.48 549.13,131.74z"/>
  <path class="fil3" d="M18967.83 30679.71c34.34,1328.17 1193.5,2579.23 2587.37,2356.76 638.19,-101.85 1075.57,-463.05 1477.11,-982.6 752.39,-973.5 750.31,-2871.88 -277.74,-3854.34 -824.08,-787.55 -2108.86,-837.08 -3001.31,63.66 -662.68,668.84 -816.11,1228.88 -785.43,2416.52z"/>
  <path class="fil3" d="M23871.78 27911.02c-63.7,427.07 -130.59,235.49 56.97,575.78 297,538.84 313.92,1364.3 301.44,1986.64 -56.89,2836.79 -593.3,1777.39 -575.82,2508.35 259.68,9.8 695.82,-100.65 1003.94,-125.84 319.89,-26.15 820.32,29.97 1056.4,-68.92 462.3,-363.22 -768.96,-785.53 -204.67,-2109.61 2216.65,207.2 2777.33,-1604.88 2326.74,-2406.26 -283.23,-503.72 -1052.87,-821.42 -1850.28,-698.2 -1242.24,191.95 -285.71,367.02 -2114.72,338.06z"/>
  <path class="fil3" d="M15845.13 29912.9c-121.62,-525.53 57.73,-1306.13 361.36,-1699.77 67.25,-87.18 315.05,-270.95 73.09,-420.83 -135.43,-83.89 -961.18,110.32 -1141.55,125.58 -688.07,58.2 -739.12,-76.11 -1084.43,-25.37l-113.47 37.16c-130.05,251.65 43.82,345 141.8,565.07 364.28,818.28 378.34,2426.29 196.11,3331.34 -171.5,851.8 -408.88,745.54 -301.31,1058.6l247.39 13.17c253.51,-37.8 274.52,-119.87 775.62,-103.23 362.63,12.04 798.99,166.81 1072.19,104.41 37.43,-685.6 -623.39,-780.31 -163,-1925.26 654.63,54.07 -47.95,188.05 1101.91,68.83 -64.77,1674.68 -880.42,2071.46 184.48,1825.89 741.47,-170.97 1275.24,48.59 1657.55,-67.2 117.27,-304.08 -220.47,-693.13 -323.26,-1070.34 -96.49,-354.01 -135.78,-874.6 -144.82,-1247.16 -27.24,-1121.5 26.07,-1618.88 669.46,-2303.15l-253.63 -434.93c-330.7,29.11 -571.47,142.37 -956.03,157.65 -532.44,21.13 -596.94,-75.68 -1038.88,-143.98 -105.66,492.16 -109.1,265.34 100.7,581.29 218.29,328.75 372.85,1274.47 -31.48,1715.15 -501.44,-25.19 -228.31,-226.67 -1029.8,-142.92z"/>
  <ellipse class="fil2" transform="matrix(1.07566 0.037563 -0.0327942 0.939104 21300.2 30316.9)" rx="1084.79" ry="1574.27"/>
  <path class="fil2" d="M25185.89 28440.88l163.64 1381.14c186.23,54.92 399.85,75.33 623.47,51.82 654.67,-68.81 1147.2,-487.89 1100.1,-936.04 -47.11,-448.14 -616.01,-755.67 -1270.67,-686.86 -231.31,24.31 -442.36,92.35 -616.54,189.94z"/>
  <path class="fil4" d="M12522.56 28264.27c128.05,38.33 224.4,77.25 315.17,86.77 90.78,9.53 175.96,-10.37 238.71,-29.77 62.72,-19.4 103,-38.33 125.77,-47.69 22.78,-9.37 28.05,-9.19 30.69,-9.1 2.64,0.1 2.64,0.1 10.98,25.8 8.34,25.7 25.04,77.1 25.11,150.78 0.06,73.69 -16.5,169.67 -40.99,236.44 -24.5,66.78 -56.93,104.38 -99.04,138.47 -42.13,34.1 -93.94,64.72 -149.2,89.15 -55.28,24.45 -114,42.73 -190.58,42.59 -76.58,-0.13 -170.99,-18.67 -241.2,-54.66 -70.21,-35.98 -116.22,-89.4 -190.97,-148.91 -74.75,-59.52 -178.25,-125.1 -257.1,-186.89 -78.85,-61.79 -133.06,-119.78 -174.37,-166.49 -41.33,-46.69 -69.77,-82.12 -111.29,-122.68 -41.54,-40.55 -96.12,-86.25 -155.93,-123.38 -59.81,-37.13 -124.83,-65.7 -203.44,-82.87 -78.63,-17.16 -170.85,-22.93 -246.48,-12.42 -75.62,10.52 -134.65,37.3 -175.87,67.62 -41.23,30.32 -64.65,64.17 -84.78,111.29 -20.14,47.14 -36.98,107.52 -39.41,177.3 -2.44,69.79 9.52,148.99 48.45,244.36 38.92,95.36 104.79,206.91 169.77,290.48 64.97,83.58 129.05,139.18 208.81,199.13 79.77,59.96 175.24,124.26 303.22,202.41 127.99,78.17 288.49,170.15 452.13,248.28 163.63,78.13 330.4,142.39 440.46,204.67 110.04,62.28 163.39,122.59 3.08,100.46 -160.32,-22.11 -534.28,-126.63 -765.92,-185.54 -231.64,-58.91 -320.97,-72.19 -383.12,-69.28 -62.15,2.91 -97.15,22.02 -102.61,65.02 -5.47,43.01 18.6,109.9 58.14,187.51 39.54,77.61 94.54,165.91 155.28,241.72 60.73,75.81 127.17,139.1 179.33,195.54 52.17,56.46 90.05,106.05 10.45,79.13 -79.6,-26.91 -276.68,-130.35 -471.07,-234.96 -194.41,-104.6 -386.12,-210.38 -523.14,-370.16 -137.01,-159.77 -219.34,-373.53 -277.47,-599.16 -58.14,-225.61 -92.1,-463.09 -60.47,-688.12 31.62,-225.02 128.82,-437.6 290.71,-574.23 161.9,-136.63 388.48,-197.31 574.64,-197.16 186.16,0.15 331.92,61.13 467.85,138.74 135.92,77.61 262.01,171.83 404.95,237.8 142.93,65.97 302.69,103.68 430.75,142.01z"/>
  <ellipse class="fil4" transform="matrix(1.15095 0.0401922 -0.0401922 1.15095 12683.8 30791.2)" rx="251.35" ry="238.13"/>
  <ellipse class="fil4" transform="matrix(1.15095 0.0401922 -0.0401922 1.15095 13020.8 31729.1)" rx="208.36" ry="221.59"/>
  <ellipse class="fil4" transform="matrix(1.15095 0.0401922 -0.0401922 1.15095 12745.7 32512.2)" rx="145.52" ry="155.44"/>
  <ellipse class="fil4" transform="matrix(1.15095 0.0401922 -0.0401922 1.15095 12069.7 32770.6)" rx="122.37" ry="82.68"/>
  <path class="fil4" d="M14541.01 30891.63c23.12,-262.16 40.8,-477.52 45.6,-723.81 4.79,-246.28 -3.32,-523.51 -38.57,-750.88 -35.25,-227.36 -97.67,-404.85 -152.25,-551.58 -54.59,-146.74 -101.35,-262.7 -143.52,-364.72 -42.17,-102.03 -79.74,-190.1 -97.61,-260.61 -17.86,-70.49 -16.02,-123.41 37.06,-151.85 53.08,-28.44 157.4,-32.43 249.58,-16.51 92.18,15.93 172.23,51.76 297.14,76.44 124.91,24.69 294.66,38.25 493.97,5.82 199.32,-32.42 428.2,-110.82 579.77,-158.88 151.59,-48.06 225.9,-65.79 253.88,-25.54 27.99,40.26 9.67,138.49 -57.1,231.44 -66.76,92.96 -181.96,180.61 -286.73,301.56 -104.75,120.95 -199.08,275.18 -249.25,438.57 -50.17,163.41 -56.19,335.97 -32.33,489.25 23.87,153.28 77.64,287.28 125.36,371.57 47.73,84.29 89.43,118.89 19.53,155.83 -69.89,36.94 -251.36,76.23 -381.91,180.87 -130.56,104.65 -210.17,274.65 -283.6,485.52 -73.42,210.86 -140.66,462.58 -216.17,660.66 -75.52,198.1 -159.33,342.53 -186.95,260.26 -27.62,-82.27 0.97,-391.25 24.1,-653.41z"/>
  <ellipse class="fil4" transform="matrix(1.15095 0.0401922 -0.0401922 1.15095 17661.6 30694.4)" rx="198.44" ry="264.58"/>
  <ellipse class="fil4" transform="matrix(1.15095 0.0401922 -0.0401922 1.15095 17674.6 31849.7)" rx="330.73" ry="386.95"/>
  <ellipse class="fil4" transform="matrix(1.15095 0.0401922 -0.0401922 1.15095 17658.7 29905.4)" rx="119.06" ry="148.82"/>
  <path class="fil5" d="M17335.44 29427.49c20.05,-210.18 23.25,-418.22 6.51,-558 -16.74,-139.77 -53.39,-211.29 -106.51,-290.84 -53.12,-79.53 -122.7,-167.09 -175.82,-257.6 -53.12,-90.52 -89.76,-183.99 -87.51,-248.51 2.26,-64.52 43.4,-100.09 149.15,-83.14 105.76,16.95 276.11,86.42 460.95,104.31 184.86,17.88 384.22,-15.8 565.9,-52.66 181.69,-36.84 345.69,-76.85 441.46,-54.46 95.77,22.4 123.3,107.22 93.6,193.83 -29.7,86.63 -116.64,175.06 -207.4,300.2 -90.75,125.14 -185.33,286.99 -236.06,430.04 -50.74,143.06 -57.61,267.32 -62.4,404.35 -4.78,137.05 -7.48,286.85 -9.22,373.17 -1.74,86.33 -2.54,109.18 -39.95,16.4 -37.42,-92.77 -111.44,-301.17 -151.47,-500.75 -40.04,-199.58 -46.09,-390.34 -52.56,-496.02 -6.48,-105.67 -13.37,-126.24 -40.52,-48.42 -27.15,77.81 -74.55,254.03 -112.84,368.29 -38.29,114.27 -67.47,166.61 -93.43,154.26 -25.96,-12.34 -48.68,-89.35 -120.76,46.6 -72.08,135.96 -193.52,484.88 -235.78,553.18 -42.27,68.3 -5.38,-144.05 14.66,-354.23z"/>
  <path class="fil5" d="M19239.33 30713.4c-61.24,-187.61 -108.59,-473.84 -68.43,-802.74 40.17,-328.89 167.86,-700.47 357.92,-991.11 190.06,-290.63 442.46,-500.32 719.31,-663.42 276.86,-163.11 578.16,-279.63 871.33,-312.59 293.16,-32.95 578.2,17.65 817.9,97.15 239.7,79.52 434.07,187.95 598.99,318.19 164.93,130.26 300.42,282.37 416.59,455.55 116.17,173.17 213.05,367.42 274.06,636.33 61,268.92 86.15,612.5 98.04,878.26 11.9,265.77 10.55,453.74 -34.01,609.71 -44.55,155.98 -132.31,279.96 -178.9,120.79 -46.59,-159.15 -52.01,-601.43 -66.59,-856.02 -14.57,-254.59 -38.3,-321.48 -69.75,-167.59 -31.45,153.89 -70.6,528.56 -142.06,782.68 -71.44,254.13 -175.19,387.71 -200.9,302.97 -25.72,-84.74 26.57,-387.82 57.06,-663.7 30.5,-275.88 39.18,-524.57 16.97,-784.51 -22.21,-259.94 -75.31,-531.11 -235.23,-730.33 -159.91,-199.2 -426.63,-326.42 -725.83,-410.92 -299.18,-84.5 -630.83,-126.26 -938.19,-60.25 -307.36,66.02 -590.41,239.8 -749.09,519.19 -158.69,279.4 -192.99,664.4 -162.72,1066.9 30.27,402.51 125.11,822.5 260.57,1124.5 135.47,302.01 311.55,486.01 255.41,451.01 -56.14,-34.98 -344.5,-288.96 -504.97,-472.42 -160.46,-183.46 -193.01,-296.4 -228.78,-168.06 -35.77,128.33 -74.75,497.93 -113.16,552.47 -38.41,54.56 -76.24,-205.91 -132.71,-380.67 -56.48,-174.74 -131.58,-263.75 -192.83,-451.37z"/>
  <ellipse class="fil4" transform="matrix(1.15095 0.0401922 -0.0401922 1.15095 24756.2 32148.5)" rx="317.5" ry="330.73"/>
  <ellipse class="fil4" transform="matrix(1.15095 0.0401922 -0.0401922 1.15095 24707 31155.9)" rx="231.51" ry="251.35"/>
  <ellipse class="fil4" transform="matrix(1.15095 0.0401922 -0.0401922 1.15095 24709.8 30203.2)" rx="152.13" ry="231.51"/>
  <path class="fil4" d="M24423.84 29406.81c-25.22,-150.78 -60.83,-367.99 -107.83,-550.04 -47,-182.03 -105.4,-328.88 -151.26,-434.66 -45.84,-105.77 -79.15,-170.47 -67.49,-213.25 11.66,-42.78 68.28,-63.68 185.54,-74.83 117.27,-11.14 295.18,-12.56 499.74,-49.88 204.57,-37.32 435.8,-110.54 680.67,-174.4 244.89,-63.86 503.41,-118.36 728.92,-137.16 225.52,-18.8 418.03,-1.91 585.9,29.36 167.87,31.27 311.1,76.92 445.78,148.95 134.7,72.04 260.84,170.45 350.17,304.42 89.33,133.97 141.85,303.5 165.58,460.58 23.73,157.09 18.68,301.73 -0.59,453.51 -19.27,151.78 -52.78,310.67 -117.19,445.62 -64.42,134.96 -159.77,245.97 -271.88,364.01 -112.1,118.05 -240.97,243.13 -464.2,342.05 -223.23,98.92 -540.84,171.67 -733.72,201.78 -192.87,30.11 -261.03,17.56 -140.56,-49.38 120.49,-66.93 429.63,-188.26 602.17,-254.65 172.56,-66.38 208.52,-77.83 155.94,-99.99 -52.58,-22.16 -193.71,-55.04 -297.27,-72.63 -103.56,-17.59 -169.53,-19.89 -125.15,-53.92 44.37,-34.02 199.12,-99.75 337.32,-164.8 138.2,-65.04 259.87,-129.41 377.7,-229.46 117.83,-100.06 231.83,-235.82 273.34,-405.87 41.51,-170.06 10.53,-374.4 -73.24,-522.16 -83.77,-147.74 -220.32,-238.9 -389.91,-319.88 -169.59,-80.96 -372.19,-151.76 -577.95,-189.44 -205.76,-37.66 -414.68,-42.23 -598.65,-23.15 -183.96,19.09 -342.98,61.81 -449.11,117.81 -106.13,56.01 -159.35,125.28 -201.42,165.74 -42.07,40.45 -72.97,52.08 -73.69,109.22 -0.73,57.15 28.72,159.8 63.6,324.9 34.89,165.1 75.23,392.65 109.17,584.39 33.96,191.75 61.56,347.69 19.12,325.89 -42.43,-21.81 -154.88,-221.38 -229.38,-359.91 -74.5,-138.52 -111.03,-216.01 -147.73,-219.83 -36.71,-3.82 -73.6,66.02 -124.88,168.39 -51.28,102.38 -116.96,237.29 -157.23,262.56 -40.26,25.27 -55.11,-59.1 -80.33,-209.89z"/>
 </g>
</svg>
